<?xml version="1.0" encoding="UTF-8"?><svg id="Layer_1" xmlns="http://www.w3.org/2000/svg" xmlns:xlink="http://www.w3.org/1999/xlink" viewBox="0 0 839.67 848.9"><defs><style>.cls-1{fill:url(#linear-gradient-8);}.cls-2{fill:url(#linear-gradient-7);}.cls-3{fill:url(#linear-gradient-5);}.cls-4{fill:url(#linear-gradient-6);}.cls-5{fill:url(#linear-gradient-9);}.cls-6{fill:url(#linear-gradient-4);}.cls-7{fill:url(#linear-gradient-3);}.cls-8{fill:url(#linear-gradient-2);}.cls-9{fill:url(#linear-gradient);}.cls-10{fill:url(#linear-gradient-10);}.cls-11{fill:url(#linear-gradient-11);}.cls-12{fill:url(#linear-gradient-12);}</style><linearGradient id="linear-gradient" x1="7.97" y1="120.91" x2="210.13" y2="120.91" gradientUnits="userSpaceOnUse"><stop offset="0" stop-color="#b85e42"/><stop offset=".25" stop-color="#e8ba80"/><stop offset=".31" stop-color="#e6b77e"/><stop offset=".34" stop-color="#e3af78"/><stop offset=".37" stop-color="#dca26e"/><stop offset=".39" stop-color="#d38e61"/><stop offset=".42" stop-color="#c7754f"/><stop offset=".44" stop-color="#b85639"/><stop offset=".45" stop-color="#a6321f"/><stop offset=".46" stop-color="#9f2214"/><stop offset=".56" stop-color="#c47869"/><stop offset=".7" stop-color="#71371f"/><stop offset="1" stop-color="#f4bb3a"/></linearGradient><linearGradient id="linear-gradient-2" x1="201.09" y1="82.05" x2="238.74" y2="82.05" xlink:href="#linear-gradient"/><linearGradient id="linear-gradient-3" x1="117.1" y1="141.02" x2="175.21" y2="141.02" xlink:href="#linear-gradient"/><linearGradient id="linear-gradient-4" x1="168.61" y1="286.22" x2="311.13" y2="286.22" xlink:href="#linear-gradient"/><linearGradient id="linear-gradient-5" x1="268.44" y1="359.59" x2="357.04" y2="359.59" xlink:href="#linear-gradient"/><linearGradient id="linear-gradient-6" x1="321.78" y1="265.21" x2="438.76" y2="265.21" xlink:href="#linear-gradient"/><linearGradient id="linear-gradient-7" x1="243.12" y1="493.11" x2="344.74" y2="493.11" xlink:href="#linear-gradient"/><linearGradient id="linear-gradient-8" x1="403.87" y1="499.56" x2="538.99" y2="499.56" xlink:href="#linear-gradient"/><linearGradient id="linear-gradient-9" x1="494.85" y1="397.84" x2="577.75" y2="397.84" xlink:href="#linear-gradient"/><linearGradient id="linear-gradient-10" x1="560.05" y1="596.98" x2="742.81" y2="596.98" xlink:href="#linear-gradient"/><linearGradient id="linear-gradient-11" x1="703.22" y1="700.37" x2="831.72" y2="700.37" xlink:href="#linear-gradient"/><linearGradient id="linear-gradient-12" x1="737.65" y1="703.49" x2="829.61" y2="703.49" xlink:href="#linear-gradient"/></defs><path class="cls-9" d="M198.98,3.43c-31.48,28.29-62.97,56.58-94.45,84.88-15.46,13.9-30.96,27.76-46.39,41.69-14.47,13.06-28.56,26.62-39.59,42.81C6.66,190.23-1.01,211.34.11,232.63c.34,6.47,5.27,12,12,12,6.23,0,12.34-5.5,12-12-1.88-35.6,25.3-62.39,49.67-84.46,29.94-27.1,60.07-53.99,90.11-80.99,17.35-15.59,34.71-31.19,52.06-46.78,4.82-4.33,4.41-12.56,0-16.97-4.79-4.79-12.14-4.34-16.97,0h0Z"/><path class="cls-8" d="M193.07,13.24c4.77,47.65,14.76,94.59,30.32,139.89,2.1,6.13,8.23,10.18,14.76,8.38,5.96-1.64,10.5-8.6,8.38-14.76-14.84-43.21-24.91-88.04-29.46-133.51-.64-6.45-5.05-12-12-12-5.99,0-12.65,5.51-12,12h0Z"/><path class="cls-7" d="M109.16,87.8c-.33,10.64,2.69,20.71,6.74,30.43,4.05,9.74,8.49,19.32,13.36,28.67,9.34,17.95,20.22,35.05,32.41,51.2,3.9,5.16,10.36,7.85,16.42,4.31,5.09-2.98,8.23-11.21,4.31-16.42-11.47-15.2-21.79-31.23-30.75-48.04-4.48-8.39-8.64-16.97-12.41-25.7-3.37-7.81-6.34-15.85-6.07-24.45.49-15.45-23.51-15.43-24,0h0Z"/><path class="cls-6" d="M188.68,353.25c-8.73-48.8-4.07-102.11,15.55-147.89,4.52-10.54,10.36-20.73,18.94-28.48,7.47-6.74,15.97-9.74,25.51-10.42,5.6-.4-2.9-.39-1.03-1.5-.05.03.38.81.39,1.27.04,2.52,1.42,5.44,1.88,7.97,1.01,5.64,1.14,11.48.81,17.21-.61,10.65-3.69,21.33-8.84,30.68-10.91,19.79-31.82,34.46-53.79,37.4-8.17,1.09-16.05,9.62-10.36,18.06,36.13,53.53,76.97,103.86,122.04,150.12,10.8,11.08,27.76-5.89,16.97-16.97-43.66-44.83-83.28-93.39-118.28-145.26l-10.36,18.06c28.06-3.75,52.84-17.99,69.39-41.14,16.53-23.11,21.91-55.26,13.7-82.5-2.65-8.78-8.29-15.44-17.69-16.88-7.21-1.1-14.86-.23-21.8,1.97-14.62,4.63-26.44,14.32-35.61,26.38-8.87,11.67-14.57,25.44-19.38,39.19s-8.83,29.06-11.44,44.01c-6.1,34.91-5.97,70.23.27,105.1,1.14,6.38,8.92,9.99,14.76,8.38,6.73-1.85,9.53-8.36,8.38-14.76h0Z"/><path class="cls-3" d="M340.36,246.94c-3.16,33.26,2.01,66.55.37,99.84-.75,15.18-3.14,30.68-9.32,44.68s-15.25,25.23-25.91,35.49c-12.51,12.03-26.65,22.08-40.81,32.04-5.3,3.72-7.77,10.49-4.31,16.42,3.06,5.24,11.09,8.05,16.42,4.31,27.22-19.13,55.8-39.5,72.01-69.43,17.19-31.73,17.02-68.23,15.54-103.3-.84-20.01-1.89-40.05,0-60.03.61-6.46-5.95-12-12-12-7,0-11.38,5.52-12,12h0Z"/><path class="cls-4" d="M315.05,224.93c5.39,11.52,12.4,22.84,21.07,32.21,4.91,5.32,11.08,7.12,17.69,9.4,5.59,1.92,10.91,4.37,16.12,7.16,21.66,11.63,39.75,28.43,57.62,45.06,11.3,10.51,28.31-6.42,16.97-16.97-18.11-16.85-36.62-33.92-58.13-46.39-5.03-2.92-10.22-5.52-15.56-7.82-3.25-1.4-6.52-2.74-9.85-3.92-2.28-.8-5.39-1.17-7.33-2.66-2.4-1.84-6.45-8.23-8.77-11.76-3.45-5.25-6.44-10.76-9.1-16.44s-11.19-7.36-16.42-4.31c-6.02,3.52-7.06,10.53-4.31,16.42h0Z"/><path class="cls-2" d="M239.4,452.86c36.49,26.37,67.66,59.94,91.59,98.05,8.19,13.05,28.97,1.02,20.72-12.11-26.22-41.76-60.26-77.79-100.2-106.66-5.26-3.8-13.37-.91-16.42,4.31-3.54,6.05-.96,12.61,4.31,16.42h0Z"/><path class="cls-1" d="M495.92,349.64c-21.56.61-42.72,6.16-61.66,16.52-8.92,4.88-18.35,10.83-22.79,20.36-4.89,10.49-4.9,23.76-6.41,35.09-3.07,22.9-5.9,45.85-7.58,68.9s-2.75,45.99-.41,68.73c2.09,20.25,7.07,40.81,19.08,57.61,10.97,15.35,26.74,28.17,45.78,31.43,38.66,6.61,76.28-19.48,83.47-58.16,4.02-21.64-.18-44.43-13-62.52-12.57-17.74-30.8-30.48-51.7-36.45-14.88-4.25-21.23,18.9-6.38,23.14,27.86,7.96,49.56,32.45,48.65,62.03-.42,13.73-6,27.49-16.63,37.06-9.76,8.79-23.23,12.93-36.29,11.94-12.06-.92-24.37-9.06-32.33-19.41-9.66-12.55-14.37-28.16-16.36-43.98-2.43-19.32-1.73-39.19-.7-58.58,1.07-20.1,3.13-40.14,5.6-60.11,1.36-11.06,2.86-22.11,4.37-33.15.55-3.97.52-9.22,2.23-12.9,1.55-3.34,5.23-5.37,8.26-7.25,16.52-10.18,35.42-15.73,54.8-16.28,15.41-.44,15.47-24.44,0-24h0Z"/><path class="cls-5" d="M540.22,340.78c3.71-1.35,6.63-1.2,10.45,1.88,3.05,2.46,5.26,6.83,6.59,10.65,3.78,10.81,5.71,24.75,4.14,35.44-.21,1.43-.91,4.48-1.64,6.49-.4,1.11-1.38,2.93-2.3,4.03-.38.46-1.49,1.41-3.32,2.16-2.47,1.02-5.33,1.35-7.96,1.71-13.41,1.84-27.48,1.69-40.86-.34,1.77,6.69,3.53,13.37,5.3,20.06l.85-.75-5.3,3.09c-5.4,1.69-5.44-1.77-4.74-.14.5,1.17,1.94,2.36,2.77,3.39,1.96,2.41,3.94,4.8,5.95,7.17,4.21,4.98,8.53,9.87,12.94,14.67,8.62,9.37,17.63,18.37,26.96,27.03,11.31,10.5,28.32-6.43,16.97-16.97-11.84-10.99-23.15-22.53-33.82-34.65-9.49-10.78-23.16-34.24-39.57-19.8-6.32,5.56-3.54,18.71,5.3,20.06,18.73,2.85,37.92,3.44,56.61-.13s27.71-18.48,29.74-36.15c1.92-16.68-1.04-35.56-8.18-50.75-7.4-15.74-25.73-27.67-43.28-21.27-6.09,2.22-10.2,8.15-8.38,14.76,1.61,5.87,8.64,10.61,14.76,8.38h0Z"/><path class="cls-10" d="M575.49,671c5.28-19.53,10.73-39.01,16.37-58.44,4.78-16.49,9.1-33.49,18.3-48.19,7.55-12.07,18.32-22.05,28.1-32.64,11.1-12.02,20.89-24.8,26.33-40.4-7.86-1.06-15.71-2.13-23.57-3.19,2.2,24.93,1.56,50.12-2.51,74.82-.97,5.89,1.03,11.78,6.95,14.16,5.38,2.16,12.05.42,14.99-4.91,22-39.99,51.1-75.35,85.99-104.77-6.83-2.83-13.66-5.66-20.49-8.49-7.02,75-22.64,149.15-46.19,220.7-6.66,20.22-13.97,40.23-21.87,60-2.41,6.02,2.63,13.18,8.38,14.76,6.84,1.88,12.35-2.34,14.76-8.38,28.36-70.95,48.76-145.02,60.6-220.51,3.46-22.09,6.24-44.29,8.32-66.56.43-4.62-3.36-9.35-7.38-10.97-4.74-1.91-9.27-.75-13.11,2.48-36.3,30.62-66.84,68.02-89.74,109.63l21.93,9.25c4.43-26.89,5.77-54.03,3.37-81.2-1.19-13.45-18.98-16.34-23.57-3.19s-14.5,23.87-24.24,34.17c-10.68,11.28-21.76,22.56-29.56,36.12-9.06,15.77-13.9,33.6-18.93,50.94-5.64,19.43-11.09,38.91-16.37,58.44-4.04,14.93,19.11,21.3,23.14,6.38h0Z"/><path class="cls-11" d="M718.53,800.27c12.6-33.02,22.18-66.78,30.86-101,7.15-28.19,14.48-56.92,28.44-82.33,7.87-14.32,17.31-26.43,29.85-37.01-6.83-2.83-13.66-5.66-20.49-8.49.84,70.39,7,140.65,18.26,210.13,3.18,19.59,6.78,39.11,10.78,58.55,1.31,6.35,8.81,10.02,14.76,8.38,6.6-1.81,9.69-8.39,8.38-14.76-13.82-67.18-22.64-135.28-26.3-203.77-1.04-19.49-1.66-39.01-1.89-58.53-.13-11.02-12.74-15.02-20.49-8.49-49.61,41.82-58.11,110.94-74.89,169.69-5.91,20.7-12.75,41.12-20.43,61.24-2.31,6.06,2.56,13.16,8.38,14.76,6.76,1.86,12.44-2.3,14.76-8.38h0Z"/><path class="cls-12" d="M741.66,707.55c27.66-5.56,56.44,1.03,79.61,16.88,5.35,3.66,13.31,1.01,16.42-4.31,3.47-5.94,1.06-12.75-4.31-16.42-28.56-19.54-64.32-26.09-98.1-19.3-6.36,1.28-10.01,8.83-8.38,14.76,1.82,6.62,8.39,9.66,14.76,8.38h0Z"/></svg>